<svg width="80" height="78" viewBox="0 0 80 78" fill="none" xmlns="http://www.w3.org/2000/svg">
<path fill-rule="evenodd" clip-rule="evenodd" d="M28.9041 29.496L28.8521 29.5867C28.1908 30.836 27.7375 31.5987 27.4535 31.5987V31.6093C27.2388 31.6093 27.0215 31.3947 26.7708 31.0347L26.7655 31.0387C22.9548 25.8027 16.3615 21.248 11.0788 21.2267C17.5855 8.79333 30.6881 0.291992 45.8055 0.291992C58.3668 0.291992 69.5335 6.16533 76.6855 15.28C71.7308 10.46 65.0761 7.63999 57.4508 7.63999C44.5401 7.63999 33.9988 19.9453 28.9041 29.496ZM23.9708 38.916C23.9708 42.7853 16.1308 50.948 11.0321 50.948C4.9748 50.948 0.00146484 45.1893 0.00146484 38.916C0.00146484 32.6413 4.9748 27.06 11.0321 27.06C16.0055 27.06 23.9708 34.8333 23.9708 38.916ZM57.4388 64.5507C42.6641 64.5507 31.4721 42.6493 31.4721 38.9293C31.4721 34.8547 43.2761 13.4747 57.4388 13.4747C71.4948 13.4747 79.9975 25.02 79.9975 38.9293C79.9975 52.84 71.4948 64.5507 57.4388 64.5507ZM26.7855 46.8C26.9881 46.5213 27.1695 46.3573 27.3428 46.356C27.6188 46.356 27.9761 46.7853 28.4295 47.5333L28.5988 47.8307C33.5708 57.5053 44.2775 70.3867 57.4508 70.3867C65.1068 70.3867 71.7841 67.532 76.7441 62.6507C69.5935 71.8066 58.3988 77.708 45.8055 77.708C30.6895 77.708 17.5908 69.208 11.0841 56.7813C16.7108 56.7573 23.0935 52.012 26.7855 46.8Z" fill="#302E2C"/>
</svg>
